<svg id="Layer_1" data-name="Layer 1" xmlns="http://www.w3.org/2000/svg" viewBox="0 0 1342.36 397.14"><polygon points="65.17 8.83 8.2 388.31 122.13 388.31 160.48 196.55 212.07 196.55 179.1 8.83 65.17 8.83"/><polygon points="307.69 8.83 275.39 196.55 212.07 196.55 242.35 388.31 323.09 388.31 364.58 188.48 406.97 388.31 520.9 388.31 463.93 8.83 307.69 8.83"/><polygon points="1190.99 8.83 1113.54 8.83 1083.12 200.34 978.03 200.4 935.76 388.31 1049.79 388.24 1083.37 200.41 1150.27 200.41 1222.32 388.31 1334.16 388.31 1190.99 8.83"/><path d="M735.12,2.43C626.79,2.43,539,90.24,539,198.57s87.81,196.14,196.14,196.14S931.26,306.9,931.26,198.57,843.45,2.43,735.12,2.43m0,287.78a91.64,91.64,0,1,1,91.64-91.64,91.64,91.64,0,0,1-91.64,91.64"/></svg>